#N canvas 352 99 1418 783 12;
#X obj 133 31 tgl 15 0 empty empty empty 17 7 0 10 -262144 -1 -1 0
1;
#X text 78 31 on/off;
#N canvas 559 46 387 513 metro 0;
#X obj 68 235 int 1;
#X obj 112 235 + 1;
#X obj 68 267 % 4;
#X msg 77 203 1;
#X floatatom 68 296 5 0 0 0 - - -;
#X floatatom 100 83 5 0 0 0 - - -;
#X floatatom 100 143 5 0 0 0 - - -;
#X obj 100 111 expr (60/$f1)*1000;
#X text 148 84 bpm;
#X text 240 109 convert to ms;
#X text 143 144 ms;
#X obj 68 174 metro;
#X text 120 176 outputs bang every 'x' ms;
#X obj 18 24 inlet;
#X obj 10 410 outlet;
#X obj 68 409 outlet;
#X text 23 386 beat;
#X obj 68 324 == 1;
#X obj 68 356 sel 1;
#X floatatom 137 296 5 0 0 0 - - -;
#X obj 137 406 outlet;
#X obj 137 324 == 1;
#X obj 137 356 sel 1;
#X text 74 385 bar;
#X text 141 383 restart;
#X obj 137 265 % 32;
#X obj 98 24 loadbang;
#X msg 103 54 100;
#X connect 0 0 1 0;
#X connect 0 0 2 0;
#X connect 0 0 25 0;
#X connect 1 0 0 1;
#X connect 2 0 4 0;
#X connect 3 0 0 0;
#X connect 4 0 17 0;
#X connect 5 0 7 0;
#X connect 6 0 11 1;
#X connect 7 0 6 0;
#X connect 11 0 0 0;
#X connect 11 0 14 0;
#X connect 13 0 11 0;
#X connect 17 0 18 0;
#X connect 18 0 15 0;
#X connect 19 0 21 0;
#X connect 21 0 22 0;
#X connect 22 0 20 0;
#X connect 25 0 19 0;
#X connect 26 0 27 0;
#X connect 27 0 5 0;
#X restore 133 65 pd metro;
#X obj 133 102 bng 15 250 50 0 empty empty empty 17 7 0 10 -262144
-1 -1;
#X obj 159 102 bng 15 250 50 0 empty empty empty 17 7 0 10 -262144
-1 -1;
#X obj 186 102 bng 15 250 50 0 empty empty empty 17 7 0 10 -262144
-1 -1;
#N canvas 447 95 450 300 control 0;
#X floatatom 17 146 5 0 0 0 - - -;
#X floatatom 70 145 5 0 0 0 - - -;
#X floatatom 197 78 5 0 0 0 - - -;
#X obj 197 21 loadbang;
#X msg 197 49 0;
#X obj 17 16 netreceive 9006;
#X obj 32 50 print received;
#X obj 17 109 route bas guitar drums keyboard;
#X floatatom 124 145 5 0 0 0 - - -;
#X floatatom 177 144 5 0 0 0 - - -;
#X text 244 77 connected or not;
#X obj 17 184 outlet;
#X obj 70 184 outlet;
#X obj 124 184 outlet;
#X obj 177 183 outlet;
#X connect 0 0 11 0;
#X connect 1 0 12 0;
#X connect 3 0 4 0;
#X connect 4 0 2 0;
#X connect 5 0 6 0;
#X connect 5 0 7 0;
#X connect 5 1 2 0;
#X connect 7 0 0 0;
#X connect 7 1 1 0;
#X connect 7 2 8 0;
#X connect 7 3 9 0;
#X connect 8 0 13 0;
#X connect 9 0 14 0;
#X restore 414 103 pd control bass guitar drums keyboard;
#X obj 474 269 route 0 1 2 3 4;
#X obj 440 299 play_instrument;
#X obj 457 239 symbol guitar;
#X obj 440 211 bng 15 250 50 0 empty empty empty 17 7 0 10 -262144
-1 -1;
#X obj 317 269 route 0 1 2 3 4;
#X obj 283 299 play_instrument;
#X obj 283 211 bng 15 250 50 0 empty empty empty 17 7 0 10 -262144
-1 -1;
#X obj 300 239 symbol bass;
#X obj 791 269 route 0 1 2 3 4;
#X obj 757 299 play_instrument;
#X obj 757 211 bng 15 250 50 0 empty empty empty 17 7 0 10 -262144
-1 -1;
#X obj 634 269 route 0 1 2 3 4;
#X obj 600 299 play_instrument;
#X obj 600 211 bng 15 250 50 0 empty empty empty 17 7 0 10 -262144
-1 -1;
#X obj 617 239 symbol drums;
#X obj 774 239 symbol keyboard;
#N canvas 607 278 459 261 report 0;
#X obj 220 116 netsend;
#X obj 220 8 loadbang;
#X floatatom 220 156 5 0 0 0 - - -;
#X msg 247 80 disconnect;
#X msg 27 50 send beat;
#X msg 114 49 send restart;
#X obj 27 16 inlet;
#X obj 114 16 inlet;
#X msg 220 48 connect localhost 10004;
#X connect 0 0 2 0;
#X connect 1 0 8 0;
#X connect 3 0 0 0;
#X connect 4 0 0 0;
#X connect 5 0 0 0;
#X connect 6 0 4 0;
#X connect 7 0 5 0;
#X connect 8 0 0 0;
#X restore 133 358 pd report back;
#X connect 0 0 2 0;
#X connect 2 0 3 0;
#X connect 2 1 4 0;
#X connect 2 2 5 0;
#X connect 3 0 23 0;
#X connect 5 0 10 0;
#X connect 5 0 13 0;
#X connect 5 0 23 1;
#X connect 6 0 11 0;
#X connect 6 1 7 0;
#X connect 6 2 18 0;
#X connect 6 3 15 0;
#X connect 7 0 8 2;
#X connect 7 1 8 3;
#X connect 7 2 8 4;
#X connect 7 3 8 5;
#X connect 7 4 8 6;
#X connect 9 0 8 1;
#X connect 10 0 8 0;
#X connect 10 0 9 0;
#X connect 11 0 12 2;
#X connect 11 1 12 3;
#X connect 11 2 12 4;
#X connect 11 3 12 5;
#X connect 11 4 12 6;
#X connect 13 0 12 0;
#X connect 13 0 14 0;
#X connect 14 0 12 1;
#X connect 15 0 16 2;
#X connect 15 1 16 3;
#X connect 15 2 16 4;
#X connect 15 3 16 5;
#X connect 15 4 16 6;
#X connect 17 0 16 0;
#X connect 17 0 22 0;
#X connect 18 0 19 2;
#X connect 18 1 19 3;
#X connect 18 2 19 4;
#X connect 18 3 19 5;
#X connect 18 4 19 6;
#X connect 20 0 19 0;
#X connect 20 0 21 0;
#X connect 21 0 19 1;
#X connect 22 0 16 1;
