#N canvas 880 455 450 339 12;
#X obj 78 295 dac~;
#X obj 78 161 readsf~;
#X msg 96 132 1;
#X obj 78 11 inlet;
#X obj 78 64 pack s s;
#X obj 79 264 *~;
#X obj 92 189 inlet;
#X msg 139 218 1;
#X msg 92 218 0;
#X obj 139 189 inlet;
#X msg 78 105 open c:/projects/toddlersynth/pd/tracks/\$1.wav;
#X connect 1 0 5 0;
#X connect 2 0 1 0;
#X connect 3 0 4 0;
#X connect 4 0 10 0;
#X connect 5 0 0 0;
#X connect 5 0 0 1;
#X connect 6 0 8 0;
#X connect 7 0 5 1;
#X connect 8 0 5 1;
#X connect 9 0 7 0;
#X connect 10 0 1 0;
#X connect 10 0 2 0;
