#N canvas 379 139 942 415 12;
#X obj 22 40 inlet;
#X obj 207 338 play_track;
#X obj 179 41 inlet;
#X text 18 14 metro;
#X text 178 17 sound off;
#X obj 274 258 inlet;
#X text 274 234 play 1;
#X msg 260 204 symbol _blue;
#X obj 207 232 pack s s;
#X msg 207 259 \$1\$2;
#X obj 88 40 inlet;
#X text 87 18 instrument;
#X obj 372 338 play_track;
#X obj 439 258 inlet;
#X obj 372 232 pack s s;
#X msg 372 259 \$1\$2;
#X text 439 234 play 2;
#X obj 546 338 play_track;
#X obj 613 258 inlet;
#X msg 599 204 symbol _blue;
#X obj 546 232 pack s s;
#X msg 546 259 \$1\$2;
#X msg 425 204 symbol _green;
#X text 613 234 play 3;
#X obj 768 133 bng 15 250 50 0 empty empty empty 17 7 0 10 -262144
-1 -1;
#X obj 715 336 play_track;
#X obj 782 256 inlet;
#X obj 715 230 pack s s;
#X msg 715 257 \$1\$2;
#X text 782 232 play 4;
#X text 764 111 instrument bang;
#X msg 768 202 symbol _green;
#X connect 0 0 8 0;
#X connect 0 0 14 0;
#X connect 0 0 20 0;
#X connect 0 0 27 0;
#X connect 2 0 1 1;
#X connect 2 0 12 1;
#X connect 2 0 17 1;
#X connect 2 0 25 1;
#X connect 5 0 1 2;
#X connect 5 0 12 1;
#X connect 5 0 17 1;
#X connect 5 0 25 1;
#X connect 7 0 8 1;
#X connect 8 0 9 0;
#X connect 9 0 1 0;
#X connect 10 0 8 0;
#X connect 10 0 14 0;
#X connect 10 0 20 0;
#X connect 10 0 24 0;
#X connect 10 0 27 0;
#X connect 13 0 12 2;
#X connect 13 0 1 1;
#X connect 13 0 17 1;
#X connect 13 0 25 1;
#X connect 14 0 15 0;
#X connect 15 0 12 0;
#X connect 18 0 17 2;
#X connect 18 0 12 1;
#X connect 18 0 1 1;
#X connect 18 0 25 1;
#X connect 19 0 20 1;
#X connect 20 0 21 0;
#X connect 21 0 17 0;
#X connect 22 0 14 1;
#X connect 24 0 7 0;
#X connect 24 0 22 0;
#X connect 24 0 19 0;
#X connect 24 0 31 0;
#X connect 26 0 25 2;
#X connect 26 0 17 1;
#X connect 26 0 12 1;
#X connect 26 0 1 1;
#X connect 27 0 28 0;
#X connect 28 0 25 0;
#X connect 31 0 27 1;
