#N canvas 981 645 450 300 12;
#X obj 183 212 dac~;
#X obj 182 166 readsf~;
#X msg 200 137 1;
#X msg 182 112 open tracks/bass_green.wav;
#X obj 64 15 loadbang;
#X obj 65 44 delay 100;
#X msg 73 108 \; pd dsp 1;
#X obj 116 74 t b b;
#X obj 174 19 bng 15 250 50 0 empty empty empty 17 7 0 10 -262144 -1
-1;
#X connect 1 0 0 0;
#X connect 2 0 1 0;
#X connect 3 0 1 0;
#X connect 3 0 2 0;
#X connect 4 0 5 0;
#X connect 5 0 7 0;
#X connect 7 0 6 0;
#X connect 7 1 3 0;
#X connect 8 0 7 0;
